<?xml version="1.0" encoding="UTF-8"?>
<svg id="Layer_1" xmlns="http://www.w3.org/2000/svg" version="1.1" viewBox="0 0 800 800">
  <!-- Generator: Adobe Illustrator 29.8.1, SVG Export Plug-In . SVG Version: 2.1.1 Build 2)  -->
  <path d="M1.5,600.7c2.4-3.9,6.3-4.1,11.6-.7,121.2,70.3,253.1,105.5,395.6,105.5s188.8-17.7,281.5-53.1c2.4-1,5.9-2.4,10.5-4.4,4.6-1.9,7.9-3.4,9.8-4.4,7.3-2.9,13-1.5,17.1,4.4,4.1,5.8,2.8,11.2-4,16-8.7,6.3-19.9,13.6-33.5,21.8-41.7,24.7-88.2,43.9-139.6,57.5-51.4,13.6-101.6,20.4-150.5,20.4-75.6,0-147.2-13.2-214.5-39.6-67.4-26.4-127.8-63.6-181.1-111.6-2.9-2.4-4.4-4.8-4.4-7.3s.5-2.9,1.5-4.4ZM220.4,393.5c0-33.5,8.2-62.1,24.7-85.8,16.5-23.8,39-41.7,67.6-53.8,26.2-11.2,58.4-19.2,96.7-24,13.1-1.5,34.4-3.4,64-5.8v-12.4c0-31-3.4-51.9-10.2-62.5-10.2-14.5-26.2-21.8-48-21.8h-5.8c-16,1.5-29.8,6.5-41.5,15.3s-19.2,20.8-22.5,36.4c-1.9,9.7-6.8,15.3-14.5,16.7l-83.6-10.2c-8.2-1.9-12.4-6.3-12.4-13.1s.2-3.2.7-5.1c8.2-43.2,28.5-75.2,60.7-96,32.2-20.8,69.9-32.5,113.1-34.9h18.2c55.3,0,98.4,14.3,129.5,42.9,4.9,4.9,9.4,10.1,13.5,15.6,4.1,5.6,7.4,10.5,9.8,14.9,2.4,4.4,4.6,10.7,6.5,18.9,1.9,8.2,3.4,13.9,4.4,17.1,1,3.2,1.7,9.9,2.2,20.4.5,10.4.7,16.6.7,18.5v176c0,12.6,1.8,24.1,5.5,34.5s7.2,17.9,10.5,22.5c3.4,4.6,9,12,16.7,22.2,2.9,4.4,4.4,8.2,4.4,11.6s-1.9,7.3-5.8,10.2c-40.2,34.9-62.1,53.8-65.5,56.7-5.8,4.4-12.8,4.8-21.1,1.5-6.8-5.8-12.7-11.4-17.8-16.7s-8.7-9.2-10.9-11.6-5.7-7.2-10.5-14.2c-4.8-7-8.2-11.8-10.2-14.2-27.2,29.6-53.8,48-80,55.3-16.5,4.8-36.8,7.3-61.1,7.3-37.3,0-68-11.5-92-34.5s-36-55.6-36-97.8ZM345.5,378.9c0,18.9,4.7,34.1,14.2,45.5s22.2,17.1,38.2,17.1,3.5-.2,6.2-.7c2.7-.5,4.5-.7,5.5-.7,20.4-5.3,36.1-18.4,47.3-39.3,5.3-9.2,9.3-19.3,12-30.2,2.7-10.9,4.1-19.8,4.4-26.5.2-6.8.4-17.9.4-33.5v-18.2c-28.1,0-49.5,1.9-64,5.8-42.7,12.1-64,39-64,80.7ZM650.9,613.1c1-1.9,2.4-3.9,4.4-5.8,12.1-8.2,23.8-13.8,34.9-16.7,18.4-4.8,36.4-7.5,53.8-8,4.8-.5,9.5-.2,13.8.7,21.8,1.9,34.9,5.6,39.3,10.9,1.9,2.9,2.9,7.3,2.9,13.1v5.1c0,17-4.6,37-13.8,60-9.2,23-22.1,41.6-38.5,55.6-2.4,1.9-4.6,2.9-6.5,2.9s-1.9-.2-2.9-.7c-2.9-1.5-3.6-4.1-2.2-8,17.9-42.2,26.9-71.5,26.9-88s-1-9.2-2.9-11.6c-4.8-5.8-18.4-8.7-40.7-8.7s-17.9.5-29.1,1.5c-12.1,1.5-23.3,2.9-33.5,4.4-2.9,0-4.8-.5-5.8-1.5-1-1-1.2-1.9-.7-2.9,0-.5.2-1.2.7-2.2Z"/>
</svg>