<?xml version="1.0" encoding="UTF-8"?>
<svg id="Layer_1" xmlns="http://www.w3.org/2000/svg" version="1.1" viewBox="0 0 64 64">
  <!-- Generator: Adobe Illustrator 29.8.1, SVG Export Plug-In . SVG Version: 2.1.1 Build 2)  -->
  <path d="M58.7,0H5.2C2.3,0,0,2.3,0,5.2v53.6c0,2.9,2.3,5.2,5.2,5.2h53.6c2.9,0,5.2-2.3,5.2-5.3V5.2c0-2.9-2.3-5.2-5.3-5.2ZM18.8,53h-9.8V10.9h9.8c7.5,0,9.5,6.4,9.5,11.6s-2,7.9-5.4,8.1c3.8,0,6.6,1.8,6.6,10.5s-4,11.9-10.7,11.9ZM55,52.9h-6.4s-3.9-13-4.7-15.5c-.6-1.9-1.1-4.2-1.7-7.3.3,5.7.4,7.3.4,12.2v10.7h-7.1V11h7.1s3.4,12.3,4.1,15c.8,2.6,1.3,4.9,1.7,6.6-.2-4.1-.3-9.2-.3-13.4v-8.3h6.9v42Z"/>
  <path d="M18.4,33.2h-1.8v14.9h1.9c2.3,0,2.9-3.2,2.9-7.9s-.6-7-3-7Z"/>
  <path d="M20.9,22.5c0-4.9-.5-6.7-3-6.7h-1.4v12.1h1.9c2.1,0,2.5-.5,2.5-5.4Z"/>
</svg>