<?xml version="1.0" encoding="UTF-8"?>
<svg id="Layer_1" xmlns="http://www.w3.org/2000/svg" version="1.1" viewBox="0 0 612 625.5">
  <!-- Generator: Adobe Illustrator 29.8.1, SVG Export Plug-In . SVG Version: 2.1.1 Build 2)  -->
  <path d="M214.3,219.8c33.4,33.4,61.8,74.6,85.6,115.4,27.6,47.4,50.9,97.4,71.6,148.1l-27.3-45.4c-58.2-95-156.8-237.3-268-270.6-27.3-8.2-54.4-9.6-82.5-4.1l9.3-4.1c83-29.7,152.5,1.8,211.2,60.6h0Z"/>
  <path d="M350.3,168.9l-39.7-1.9-38.6-37.8-8.5-125.1c32.2,20,59,52.1,81.1,82.6,5,6.9,18.9,25.3,21.5,32.2.5,1.4.9,2.4.3,3.8l-16,46.2h0Z"/>
  <path d="M361.8,168.9l26.1-37.7c.7-1.2,1.9-1.4,3.1-1.8,10.7-3.2,31-4.8,42.7-6,28-2.9,59.7-4.8,87.7-2.4,3.1.3,32.1,3.8,32.1,6.1l-56.5,37.7-42.9,3.4-92.2.8h-.1Z"/>
  <path d="M580.3,158.4c-15.7,16-34.4,21.8-55.9,25.7-50.7,9.3-103.7,9.4-154.9,8.3-34.2-.8-68.4-1.6-102.2-6.5-27.6-4-55.3-9-75.2-29.9,23.2,8.1,47.6,13,72,16.1,73.8,9.5,159,10.1,233,2.5,28.2-2.9,56.3-7.5,83.3-16.2h0Z"/>
  <path d="M241.6,225.8c-2.9-4.2,13.7-9.9,16.4-10.7,41.3-13.1,109.3-13.3,153-12,30,.9,67.7,3.9,96.6,11.5s18.4,4.6,23.2,11.7c0,1.5-17.6,8.3-20,8.3s-9.6-3.7-12.3-4.4c-44.4-11.9-105.5-12.4-151.7-10.8-29.1,1-59.3,4.2-86.9,13.5l-18.2-7h0Z"/>
  <path d="M612,314.4c.2,1.5-1.6.6-2.5.4-4.5-1-8.9-2.7-13.6-3.5-71.3-11.2-143.8,76.7-181.2,127.9l-31,44.9c-.2-1.4.4-2.4.9-3.6,5.4-13.3,14.7-29.7,21.7-42.5,34.2-62.5,102-168.9,187.5-132.8,85.5,36.1,11.8,6.7,18.1,9.1h0Z"/>
  <path d="M373,272.3c20.7-.8,88.2,2,100.9,19.7.6.9,1.7,2,1.5,3.1-.3,1.8-10.7,8.4-12.5,8.4-3.3-1.8-6.4-3.8-9.9-5.2-33.6-13.5-107-13.5-140.2.7s-4,3.4-6.4,3-10.3-6-10.3-8.4c.3-2.1,1.8-3.6,3.2-4.9,12.9-11.9,56.2-15.7,73.8-16.4h-.1Z"/>
  <path d="M525.9,233.9c-13.1,13.3-28.2,17.8-46.1,20.9-49.1,8.3-111,7.7-160.6,2.7-24.6-2.5-54.5-5.2-71.9-24.4,14.8,5.6,30.4,8.9,46,11.2,43.8,6.5,89,6.8,133.1,5,33.4-1.4,68.1-3.5,99.5-15.4h0Z"/>
  <path d="M261.1,119.4c-1.5,10.9,1.4,15.7,9.8,21.9-21.2,2.3-42.7,6.2-62.1,15.4-2.4,0-24.3-8.9-24.7-10.2.9-8.7,11.7-13.1,19-15.8,18.4-6.7,38.9-8.4,58.1-11.4h0Z"/>
  <path d="M471.5,304.6c-6.5,11.3-15,16.1-27.3,19.4-28.2,7.7-76.6,7.6-105.3,2.3-15.9-2.9-31.6-7.7-39.6-22.9l10.4,5.1c37,14.7,105,15.1,143,3.7,6.6-2,12.6-4.8,18.9-7.5h-.1Z"/>
  <path d="M369.9,96.7l-29.7-43.8c-9.4-11.1-18.6-22.6-29.1-32.6s-14.3-13.2-16.7-14.1-10.8-2.4-8.1.3c1.2,0,2.3.5,3.2,1.3,17.8,13.6,35.8,35.7,47.5,54.9s4.8,7,4.9,10.5C321.7,45.5,298.2,19.9,270,0c7.8,1.6,17.8-.3,25.2,2,7.4,2.3,28.3,22.9,33.7,28.9,17,18.7,32.3,42.1,41,65.8h0Z"/>
  <path d="M422.4,362.7c-.7,1-2.7,2.9-4,2.6-11.7-9.2-31.1-11.2-45.6-10.4-10.8.6-25.1,3-33.3,10.6l-5.1-6.7c.4-1.4,1.4-2.4,2.3-3.4,13.3-15,64.6-13.5,80.9-3.7,5,3,8.7,5.8,4.9,11.1h0Z"/>
  <path d="M552.7,119.4c-36.3-7.4-73.8-6.9-110.5-2.4l16.1-3.8c26.7-3.8,54-6,80.6-1.1-1.8-2.8-5.7-5.4-8.9-6.1-4.6-1.1-13.4-1.7-18.3-2-24-1.2-50,.3-73.8,3.4-8.9,1.2-18.4,3.7-27,4.7s-2.9.7-2.7-.7c41.3-12.1,85.9-16.9,128.3-7.7l16.3,15.8h0Z"/>
  <path d="M534.8,151.9l27.2-19.1c9.4,2.9,23,5.5,27,15.5-.3,2-23.9,10.9-27.1,10.8s-7.9-3.2-10.6-3.9c-5.3-1.5-11.1-3.1-16.6-3.3h0Z"/>
  <path d="M421.9,367.1c-5.7,16.7-32.7,17.8-47.5,17.1s-32.7-3.1-37.7-17.5l8.4,4.6c24,8.6,54.5,9.1,76.9-4.2h0Z"/>
  <path d="M396.7,410.2l-18.7,34.1-16.3-33.3c8.6,4,18.2,5.6,27.5,2.7s4.8-2.7,7.5-3.5h0Z"/>
  <path d="M395.9,407.8l-6.5-3.6c-7.3-2.5-13.3-2.5-20.6-.4s-9.2,5.8-8.6-.4,15.2-7,19.1-6.9,22.7,3.4,16.7,11.4h-.1Z"/>
  <path d="M469.1,388.7v120.6H133.6V207.9l-37.4-20.3v387.9c0,23.3,26.5,48.7,49.5,50h312.1c17.1-1.8,34.6-14.1,42.5-29.3,1.6-3.2,6.2-14.4,6.2-17.4v-223l-37.4,32.9ZM322,582l-1.2,1.2h-39.4v-40.6h39.4l1.2,1.2v38.2Z"/>
</svg>